<?xml version="1.0" encoding="UTF-8"?>
<svg id="Capa_1" xmlns="http://www.w3.org/2000/svg" version="1.1" viewBox="0 0 363 41.9">
  <!-- Generator: Adobe Illustrator 29.8.2, SVG Export Plug-In . SVG Version: 2.1.1 Build 3)  -->
  <defs>
    <style>
      .st0 {
        stroke-width: 1.3px;
      }

      .st0, .st1 {
        fill: #efeee1;
        stroke: #1e1f1c;
        stroke-miterlimit: 10;
      }

      .st1 {
        stroke-width: 1.3px;
      }
    </style>
  </defs>
  <path class="st1" d="M20,13h-8.4s0-2.6,0-2.6c0-1.4,0-2.2-.1-2.6-.2-.4-.6-.5-1.1-.5-.7,0-1.1.4-1.2.9s-.3,4.4,0,5.9,1.2,1.1,2.6,2c3.7,2.2,6.5,3.7,7.5,5.4,1,1.7.8,4.1.8,8.7s.1,5.7-.2,6.9c-.4,1.3-1.1,2.3-2.5,3.4-1.5,1-4.7.9-6.8.9s-5.7,0-6.8-.6c-1.6-1-2.4-2.3-2.7-3-.6-1.6-.4-5.7-.4-8.7v-2.3c0,0,8.4,0,8.4,0v4.4c0,1.5,0,2.3.1,2.7.2.4.5.6,1.1.6s1.2,0,1.3-1.9.1-2.3,0-3c0-4.6.9-4-3.9-6.8s-4.1-2.4-4.8-3.2c-.7-.8-1.5-1.6-1.9-3-.5-1.3-.4-3-.4-5.1,0-3-.2-5.9.4-7.3.6-1.4,1.3-2.1,2.7-2.9,1.4-.8,3.8-.6,5.9-.6s5.5-.1,7.1.8c1.6.9,2.2,1.5,2.7,2.8.3.8.4,2.4.5,4.1s0,2.1,0,3.3v1.3Z"/>
  <path class="st0" d="M39.6.8v27.2c0,3.1,0,5.2-.2,6.5-.2,1.2-.1,3-.9,4.3-.8,1.3-1.2,1.4-2.5,1.9-2.2.8-11,.5-12.6-.2-1.6-.7-1.6-.9-2.4-2.2-.7-1.3-.5-3-.6-4.4s-.2-4.4-.2-9V.8s8.5,0,8.5,0v30.5c0,.6,0,1.3,0,1.9,0,.3,0,.6.2.8s.6.3.9.3c.3,0,.6,0,.8-.1.4-.3.4-1,.4-1.4,0-.7,0-1.4,0-2.1s0-30,0-30h8.5Z"/>
  <path class="st1" d="M39.4.9h9.7c2.6,0,4.8,0,6.2.5,1.4.4,3.3,2.5,3.4,3.7.4,4.8.1,18.5-.5,19.8-.2.5-.8,2.6-6.4,2.9h-3.8c0,0-.1,13.1-.1,13.1h-8.4s0-40.1,0-40.1ZM47.9,7.7s0,13.4,0,13.4c.4,0,.7,0,1.1,0s.7,0,1-.3.4-.8.5-1.3c.1-.9.1-3.1.1-4.6,0-1.4,0-2.7,0-4.2,0-.6,0-1.3,0-1.9,0-.5-.2-1-.7-1-.6,0-1.2,0-1.9,0Z"/>
  <path class="st1" d="M58.9.9h13.3s0,6.6,0,6.6h-4.8s0,8.3,0,8.3h4.6s0,6.4,0,6.4h-4.6s0,12.2,0,12.2h4.8s-.2,6.6-.2,6.6h-13.1s0-40.2,0-40.2Z"/>
  <path class="st1" d="M179.8.9h13.2s0,6.7,0,6.7h-4.7s0,8.3,0,8.3h4.7v6.5h-4.8s0,12,0,12h4.8s0,6.6,0,6.6h-13.2s0-40.2,0-40.2Z"/>
  <path class="st1" d="M264.7.8h13.3s0,6.7,0,6.7h-4.8s0,8.3,0,8.3h4.8v6.5h-4.8s0,12.1,0,12.1h4.8s0,6.6,0,6.6h-13.3s0-40.3,0-40.3Z"/>
  <path class="st1" d="M72.3.9h6.2c8.7-.1,8.2,0,9.7.3,1.3.4,2.1,1.1,2.9,2.8,1,2.1.8,4.4.8,7.8s-.2,5.9-.7,7-1.9,2.2-2.3,2.5c.3.1,2.2,1.4,2.8,4.1.2.7.2,1.8.2,5.1v10.6c-.9,0-1.8,0-2.7,0-1.5,0-5.4,0-5.7,0,0-.6,0-1.1,0-1.6s0-1.1,0-1.6c0,0,0-3.7,0-5v-5.3c0-1,0-1.4-.3-1.8-.4-.6-1-.7-2.2-.7v16s-8.5,0-8.5,0V.9ZM80.7,7.5v10.2c2.2,0,2.7.3,2.7-4.5v-2.3c0-3.8-.7-3.4-2.7-3.4Z"/>
  <path class="st1" d="M149.3.9v6.7s-4,0-4,0v33.4s-8.7,0-8.7,0V7.6s-4.1,0-4.1,0V.9s16.8,0,16.8,0Z"/>
  <path class="st1" d="M166.2.9v6.7s-4,0-4,0v33.4s-8.7,0-8.7,0V7.6s-4.1,0-4.1,0V.9s16.8,0,16.8,0Z"/>
  <path class="st1" d="M314.1.9v6.7s-4,0-4,0v33.4s-8.7,0-8.7,0V7.6s-4,0-4,0V.9s16.7,0,16.7,0Z"/>
  <path class="st1" d="M175,.9v33.5s4.9,0,4.9,0v6.7h-13.4s0-40.2,0-40.2h8.5Z"/>
  <path class="st1" d="M245.9.9v33.5s4.9,0,4.9,0v6.7h-13.4s0-40.2,0-40.2h8.5Z"/>
  <path class="st1" d="M259.7.9v33.5s4.9,0,4.9,0v6.7h-13.4s0-40.2,0-40.2h8.5Z"/>
  <path class="st1" d="M297.4,15.1h-8.5s.2-6.6,0-7.1c-.2-.5-.6-.7-1.2-.7s-1.1.3-1.3.9c-.2.6-.2,25.1,0,25.6.2.6.6.9,1.2.9s1-.3,1.2-.9c.2-.6,0-9.5,0-9.5h8.5s0,2.1,0,2.1c0,4.2,0,7.1,0,8.8,0,2.4-.9,4.1-2.2,5.1-1.2,1-3.1,1.1-7.4,1.1-3.1,0-5.1,0-6.8-.7s-2-1.1-2.5-3c-.4-1.9-.5-7.2-.5-11v-10.6c0-1.8,0-6.4,0-9.4s.2-2,.4-2.6c.6-1.4,2.1-2.8,3.6-3,1.1-.2,3.7-.3,6.2-.2s5,0,6.4.8,2.2,2.5,2.6,4.3c.3,1.8.2,5.3.2,8.9v.3Z"/>
  <path class="st1" d="M218.1,15.1h-8.6s.2-6.6,0-7.1c-.2-.5-.6-.7-1.2-.7s-1.1.3-1.3.9c-.2.6-.2,25.1,0,25.6.2.6.6.9,1.2.9s1-.3,1.2-.9c.2-.6,0-9.5,0-9.5h8.6s0,2.1,0,2.1c0,4,0,7,0,8.8s-.9,4.3-2.2,5.3-3,.9-7.4.9-5.1,0-6.9-.7-2.1-1.1-2.5-3c-.5-1.9-.5-7.2-.5-11v-10.6c0-1.8,0-6.4,0-9.4s.2-2,.4-2.6c.6-1.4,2.1-2.8,3.6-3,1.1-.2,3.7-.3,6.3-.2,2.6,0,5.1,0,6.5.8s2.3,2.5,2.6,4.3c.3,1.8.2,5.3.2,8.9v.3Z"/>
  <path class="st1" d="M229,8c-.2-.5-.6-.7-1.2-.7s-1.1.3-1.3.9c-.2.6-.2,25.1,0,25.6.2.6.6.9,1.2.9s1-.3,1.2-.9c.2-.6.2-25.3,0-25.8ZM237.4,35.2c0,2.2-1,4-2.2,5s-2.9,1-7.3,1c-3.2,0-5.1,0-6.9-.7s-1.9-1.1-2.4-3c-.5-1.9-.6-7.2-.6-11,.2-4,0-21,.7-22.7s1.8-2.6,3.3-2.9c1.1-.2,3.7-.3,6.3-.2,2.6,0,5.1,0,6.5.8s2.3,2.5,2.6,4.3c.3,1.8,0,27.6,0,29.4Z"/>
  <path class="st1" d="M333.7,8c-.2-.5-.6-.7-1.1-.7s-1.1.3-1.3.9c-.2.6-.2,25.1,0,25.6.2.6.6.9,1.2.9s1-.3,1.2-.9c.2-.6.2-25.3,0-25.8ZM342,35.3c.1,2.2,0,3.2-1.9,4.9s-3.3,1.1-7.5,1.1c-3.1,0-5,0-6.7-.7s-1.8-1.1-2.3-3c-.4-1.9-.6-7.2-.6-11,.2-4,0-21,.7-22.7s1.7-2.6,3.2-2.9c1.1-.2,3.6-.3,6.1-.2s4.9,0,6.3.8c1.5.9,2.2,2.5,2.5,4.3s0,28.1.2,29.4Z"/>
  <path class="st1" d="M323,.8v40.3s-8.6,0-8.6,0V.8s8.6,0,8.6,0Z"/>
  <path class="st1" d="M362.3.8v40.3s-8.5,0-8.5,0l-4.1-20.2s0,0,0,0v20.2c.1,0-7.7,0-7.7,0V.8s9.3,0,9.3,0l4,19.1s0,0,0,0l-.3-19.1h7.4Z"/>
  <path class="st1" d="M131.5.9h-10.4s-5.4,40.2-5.4,40.2h8.1s.5-6.9.5-6.9h3.5s.5,6.9.5,6.9h8.3S131.5.9,131.5.9ZM124.9,27.5c.2-3.6.7-9,1.3-16.7.4,6.8.7,12.2,1.2,16.7h-2.5Z"/>
  <path class="st1" d="M113.3,19.3c3.2-2.3,3.2-4.6,3.2-7,0-3.5.1-6.7-.7-8.3-.8-1.6-1.8-2.3-3.3-2.8-1.4-.4-4.3-.4-6.9-.4h-8.3s0,40.3,0,40.3h9.7c3.4,0,5.7,0,6.7-.6,1.1-.5,1.8-1.2,2.3-2.5.5-1.3.8-3.7.8-6.5v-3.7c0-2.5,0-5.9-3.4-8.5ZM105.6,7.6c1.4,0,2.6-.1,2.6,1.4,0,2.8.1,5.5-.1,6.1-.4.9-1.8.7-2.4.7V7.6ZM105.6,34.4v-11.1c1.4,0,2.5-.1,2.6,1.3,0,1.3,0,5.1,0,5.1,0,4.5.2,4.7-2.7,4.7Z"/>
</svg>